<svg width="41" height="40" viewBox="0 0 41 40" fill="none" xmlns="http://www.w3.org/2000/svg">
<path d="M39 21V8.94H26.667V2H14.333V11.913H2V21" stroke="black" stroke-width="3" stroke-linecap="round" stroke-linejoin="round"/>
<path d="M39 8.94H26.667" stroke="black" stroke-width="3" stroke-linecap="round" stroke-linejoin="round"/>
<path d="M14.836 33V30.514L21.018 25.146C21.5753 24.6473 21.9787 24.1927 22.228 23.782C22.492 23.3713 22.624 22.9387 22.624 22.484C22.624 21.8973 22.3893 21.4133 21.92 21.032C21.4507 20.636 20.8567 20.438 20.138 20.438C19.4193 20.438 18.7447 20.5847 18.114 20.878C17.498 21.1713 16.816 21.6553 16.068 22.33L14.088 19.954C15.012 19.118 15.9947 18.4873 17.036 18.062C18.092 17.622 19.17 17.402 20.27 17.402C21.1353 17.402 21.9273 17.5193 22.646 17.754C23.3647 17.9887 23.9733 18.3187 24.472 18.744C24.9853 19.1693 25.3813 19.6827 25.66 20.284C25.9533 20.8853 26.1 21.5453 26.1 22.264C26.1 23.1147 25.8727 23.9213 25.418 24.684C24.978 25.432 24.252 26.246 23.24 27.126L19.852 30.03H26.254V33H14.836Z" fill="black"/>
</svg>