<svg width="41" height="40" viewBox="0 0 41 40" fill="none" xmlns="http://www.w3.org/2000/svg">
<path d="M39 21V8.94H26.667V2H14.333V11.913H2V21" stroke="black" stroke-width="3" stroke-linecap="round" stroke-linejoin="round"/>
<path d="M14.333 11.913H2" stroke="black" stroke-width="3" stroke-linecap="round" stroke-linejoin="round"/>
<path d="M27.024 28.666C27.024 29.326 26.8627 29.9347 26.54 30.492C26.2173 31.0493 25.77 31.5333 25.198 31.944C24.6407 32.34 23.966 32.6553 23.174 32.89C22.3967 33.11 21.546 33.22 20.622 33.22C19.3753 33.22 18.1947 33 17.08 32.56C15.98 32.12 15.0707 31.5113 14.352 30.734L16.75 28.534C17.3367 29.15 17.9087 29.5753 18.466 29.81C19.038 30.0447 19.742 30.162 20.578 30.162C21.4287 30.162 22.1107 30.0007 22.624 29.678C23.152 29.3553 23.416 28.9227 23.416 28.38C23.416 27.9253 23.1887 27.566 22.734 27.302C22.294 27.038 21.678 26.906 20.886 26.906H19.434V24.068H20.512C21.2453 24.068 21.8467 23.892 22.316 23.54C22.7853 23.1733 23.02 22.7113 23.02 22.154C23.02 21.6553 22.7853 21.252 22.316 20.944C21.8613 20.6213 21.2747 20.46 20.556 20.46C19.8227 20.46 19.1847 20.592 18.642 20.856C18.114 21.1053 17.5273 21.56 16.882 22.22L14.462 20.042C15.21 19.206 16.1413 18.5533 17.256 18.084C18.3707 17.6 19.5147 17.358 20.688 17.358C21.5533 17.358 22.3527 17.468 23.086 17.688C23.8193 17.8933 24.4427 18.1867 24.956 18.568C25.4693 18.9493 25.8727 19.4113 26.166 19.954C26.4593 20.4967 26.606 21.0907 26.606 21.736C26.606 22.484 26.4153 23.1733 26.034 23.804C25.6527 24.42 25.1247 24.9187 24.45 25.3C25.242 25.608 25.8653 26.0553 26.32 26.642C26.7893 27.2287 27.024 27.9033 27.024 28.666Z" fill="black"/>
</svg>