<svg width="27" height="31" fill="none" xmlns="http://www.w3.org/2000/svg">
  <path d="M10.54 6.263v5.376l2.717.486 2.546.962V7.824l-2.546-.938-2.717-.623zM4.947 2.316v5.269L7.31 6.572l3.23-.309V1L4.948 2.316zm0 10.607v4.965l5.593-1.197v-5.165l-2.797.259-2.796 1.138zm10.856 5.407v-5.243l2.698 1.07 2.565.491v4.773l-5.263-1.09zm5.263-8.945v5.263l2.667-.25L26 13.318V8.143l-2.467 1.043-2.467.199z" fill="#0D0D0D"/>
  <path fill-rule="evenodd" clip-rule="evenodd" d="M15.803 2.737v5.087l2.631.982 2.632.579V4l-5.263-1.263z" fill="#0D0D0D"/>
  <path d="M15.803 2.316V18.33M10.539 1v16.015M21.066 3.632v16.014M4.947 7.824c2.643-2.081 6.262-2.081 10.856 0s7.993 2.081 10.197 0M4.947 13.087c2.643-2.08 6.262-2.08 10.856 0 4.594 2.081 7.993 2.081 10.197 0" stroke="#000" stroke-width=".25"/>
  <path d="M1 29.316V3" stroke="#000" stroke-width="1.5" stroke-linecap="round" stroke-linejoin="round"/>
  <path d="M4.947 18.105s1.316-1.316 5.263-1.316c3.948 0 6.58 2.632 10.527 2.632 3.947 0 5.263-1.316 5.263-1.316V2.315s-1.316 1.317-5.263 1.317S14.157 1 10.21 1C6.262 1 4.946 2.316 4.946 2.316v15.79z" stroke="#000" stroke-linecap="round" stroke-linejoin="round"/>
</svg>