<svg xmlns="http://www.w3.org/2000/svg" width="20" height="22">
  <g fill="none" fill-rule="evenodd">
    <g fill="#F9F9F9" fill-rule="nonzero">
      <path d="M7.25 1.1084V5l2 .4894 2 .6968V2.1694zM3 6.0044v4.057l2.125-.9759L7.25 9V5l-2.125.252zM7.25 9.0855v4.0855l4 .829v-3.8138l-2-.7496zM11.25 6.1862v4L13.3008 11l1.9492.3725v-4l-2-.44zM15.25 3.1095v4.263l1.875-.151L19 6.429V2.32zM15.25 11.3725V15L19 14v-3.638l-1.875.8673z"/>
    </g>
    <g fill="#0D0D0D">
      <path fill-rule="nonzero" d="M7.25 5v4.0855l2.0655.3696 1.9345.7311v-4l-1.9345-.713zM3 2v4.0044l1.795-.77L7.25 5V1.1084zM3 10.0615v3.7736l4.25-.9095V9l-2.125.1963zM11.25 14.171v-3.9848L13.3008 11l1.9492.3725V15zM15.25 7.3725v4l2.0267-.1902L19 10.362V6.429l-1.875.7924z"/>
      <path d="M11.25 2.32v3.8662l2 .7464 2 .4399V3.4702z"/>
    </g>
    <g stroke="#000" stroke-width=".25">
      <path d="M11.25 2v12.171M7.25 1v12.171M15.25 3v12.171M3 6.1862c2.0086-1.5816 4.7586-1.5816 8.25 0 3.4914 1.5817 6.0747 1.5817 7.75 0M3 10.1862c2.0086-1.5816 4.7586-1.5816 8.25 0 3.4914 1.5817 6.0747 1.5817 7.75 0"/>
    </g>
    <g stroke="#000" stroke-linecap="round" stroke-linejoin="round" stroke-width="1.5">
      <path d="M3 14s1-1 4-1 5 2 8 2 4-1 4-1V2s-1 1-4 1-5-2-8-2-4 1-4 1v12zM1 21V1"/>
    </g>
  </g>
</svg>