<svg xmlns="http://www.w3.org/2000/svg" width="21" height="15"><defs/><g fill="none"><path fill="#43458B" d="M2 0h17c1.1046 0 2 .8954 2 2v11c0 1.1046-.8954 2-2 2H2c-1.1046 0-2-.8954-2-2V2C0 .8954.8954 0 2 0z"/><path fill="#F6F9FC" d="M0 5.664l3.498-2.4.001-.001h.002v.001l5.425 3.722H7.159L3.5 4.476 0 6.877V5.664zM9 .095v1.213l-3.499 2.4-.001.001-.001-.001L.741.444A1.983 1.983 0 011.862 0L5.5 2.496 9 .095z"/><path fill="#E25950" d="M8.909 7L5.25 4.49 1.591 7H0v-.121l5.248-3.601.001-.001h.002v.001L9 5.85V7h-.091zM3.751 3.722v.001h-.002v-.001L.148 1.252A1.99 1.99 0 01.749.451L3.75 2.51 7.409 0H9v.121L3.751 3.722z"/><path fill="#F6F9FC" d="M9 4.625H5.625V7h-2.25V4.625H0v-2.25h3.375V0h2.25v2.375H9z"/><path fill="#E25950" d="M9 3.998H5V7H4V3.998H0v-.996h4V0h1v3.002h4z"/><path fill="#F6F9FC" d="M17.24 6.5a.75.75 0 110-1.5.75.75 0 010 1.5zm-1.25 3a.5.5 0 110-1 .5.5 0 010 1zm-1.25-5a.75.75 0 110-1.5.75.75 0 010 1.5zm-3 3a.75.75 0 110-1.5.75.75 0 010 1.5zm3 4a.75.75 0 110 1.5.75.75 0 010-1.5zM3.99 12.523l-.684.653a.179.179 0 01-.3-.149l.068-.959-.922-.146a.186.186 0 01-.074-.334l.77-.544-.465-.834a.182.182 0 01.207-.268l.892.282.343-.895a.176.176 0 01.332 0l.343.895.892-.282a.182.182 0 01.207.268l-.465.834.77.544a.186.186 0 01-.074.334l-.922.146.068.959a.179.179 0 01-.3.149l-.686-.653z"/></g></svg>