
<svg width="21" height="15" fill="none" xmlns="http://www.w3.org/2000/svg"><path d="M1.995 0A1.997 1.997 0 0 0 0 2.005V5h21V2.005A2.007 2.007 0 0 0 19.005 0H1.995z" fill="#45B2E8"/><path d="M0 5h21v5H0V5z" fill="#E25950"/><path d="M0 10v2.995A2.006 2.006 0 0 0 1.995 15h17.01A2 2 0 0 0 21 12.995V10H0z" fill="#24B47E"/><path d="M11.25 6.267l-.353-.16a1.799 1.799 0 0 0-.756-.163 1.73 1.73 0 0 0-1.19.447c-.32.292-.502.69-.508 1.109.006.418.189.817.507 1.11a1.73 1.73 0 0 0 1.19.446c.263 0 .522-.055.757-.163l.353-.16c-.053.16-.326.409-.759.592a2.242 2.242 0 0 1-1.378.117 2.138 2.138 0 0 1-1.162-.71A1.928 1.928 0 0 1 7.5 7.5c0-.447.159-.881.451-1.233a2.138 2.138 0 0 1 1.162-.709c.46-.107.946-.066 1.378.117.433.183.629.432.759.592z" fill="#fff"/><path d="M11.5 8a.5.5 0 1 0 0-1 .5.5 0 0 0 0 1z" fill="#fff"/></svg>