<svg width="21px" height="15px" viewBox="0 0 21 15" version="1.1" xmlns="http://www.w3.org/2000/svg" xmlns:xlink="http://www.w3.org/1999/xlink">
    <g id="Page-1" stroke="none" stroke-width="1" fill="none" fill-rule="evenodd">
        <g id="Group" transform="translate(-382.000000, -135.000000)" fill-rule="nonzero">
            <g id="Group-2" transform="translate(382.000000, 134.999980)">
                <path d="M2,2.03503399e-05 L19,2.03503399e-05 C20.1045695,2.03503399e-05 21,0.895450851 21,2.00002035 L21,13.0000204 C21,14.1045899 20.1045695,15.0000204 19,15.0000204 L2,15.0000204 C0.8954305,15.0000204 0,14.1045899 0,13.0000204 L0,2.00002035 C0,0.895450851 0.8954305,2.03503399e-05 2,2.03503399e-05 Z" id="Path" fill="#F6F9FC"></path>
                <path d="M19,15.0000204 L2,15.0000204 C0.8954305,15.0000204 0,14.1045899 0,13.0000204 L0,2.00002035 C0,0.895450851 0.8954305,2.03503399e-05 2,2.03503399e-05 L19,2.03503399e-05 C20.1045695,2.03503399e-05 21,0.895450851 21,2.00002035 L21,13.0000204 C21,14.1045899 20.1045695,15.0000204 19,15.0000204 Z M20,2.00002035 C20,1.4477356 19.5522847,1.00002035 19,1.00002035 L2,1.00002035 C1.44771525,1.00002035 1,1.4477356 1,2.00002035 L1,13.0000204 C1,13.5523051 1.44771525,14.0000204 2,14.0000204 L19,14.0000204 C19.5522847,14.0000204 20,13.5523051 20,13.0000204 L20,2.00002035 Z" id="Shape" fill="#8898AA" opacity="0.200000003"></path>
                <path d="M9,15.0000407 L7,15.0000407 L6,14.5000204 L8,13.5000204 L6,12.5000204 L8,11.5000204 L6,10.5000204 L8,9.50002035 L6,8.50002035 L8,7.50002035 L6,6.50002035 L8,5.50002035 L6,4.50002035 L8,3.50002035 L6,2.50002035 L8,1.50002035 L6,0.50002035 L7,2.84217094e-14 L18.991,2.84217094e-14 C19.5216071,-0.0023716294 20.0314174,0.206188239 20.4082079,0.579790381 C20.7849984,0.953392522 20.9978829,1.46141205 21,1.99202035 L21,13.0080204 C20.9978829,13.5386287 20.7849984,14.0466482 20.4082079,14.4202503 C20.0314174,14.7938525 19.5216071,15.0024123 18.991,15.0000407 L9,15.0000407 Z" id="Path" fill="#B1372F"></path>
            </g>
        </g>
    </g>
</svg>