<svg width="21" height="15" fill="none" xmlns="http://www.w3.org/2000/svg"><path d="M2 0h17a2 2 0 0 1 2 2v11a2 2 0 0 1-2 2H2a2 2 0 0 1-2-2V2a2 2 0 0 1 2-2z" fill="#24B47E"/><path d="M10.999 2l8.999 6.004-8.999 6.004L2 8.004 10.999 2z" fill="#FCD669"/><path d="M7.051 6.993c-.03.168-.046.337-.051.507a3.483 3.483 0 0 0 5.766 2.648A8.588 8.588 0 0 0 7.05 6.993h.001zm6.523 2.147A3.46 3.46 0 0 0 14 7.5a3.49 3.49 0 0 0-6.54-1.702 9.848 9.848 0 0 1 6.114 3.342z" fill="#43458B"/><path d="M7.46 5.798c-.208.37-.347.775-.408 1.195a8.588 8.588 0 0 1 5.714 3.155 3.49 3.49 0 0 0 .808-1.008A9.848 9.848 0 0 0 7.46 5.798z" fill="#fff"/></svg>