<svg width="21" height="15" fill="none" xmlns="http://www.w3.org/2000/svg"><path d="M5 0h11v15H5V0z" fill="#F6F9FC"/><path opacity=".1" d="M16 1H5V0h11v1zM5 14h11v1H5v-1z" fill="#E25950"/><path d="M10.045 10.97l-.003-1.974-1.399-.008.177-.819L7 7.892l.647-1.197-.58-1.585 1.593.634.471-1.818.698.356.668-1.283.76 1.264.621-.286.299 1.757 1.773-.557-.545 1.47L14 7.882l-1.76.287.161.811-1.442-.014.008 1.985-.922.019zM6 15H2a2 2 0 0 1-2-2V2a2 2 0 0 1 2-2h4v15zm13 0h-4V0h4a2 2 0 0 1 2 2v11a2 2 0 0 1-2 2z" fill="#E25950"/></svg>