
<svg width="21px" height="15px" viewBox="0 0 21 15" version="1.1" xmlns="http://www.w3.org/2000/svg" xmlns:xlink="http://www.w3.org/1999/xlink">
    <g id="Page-1" stroke="none" stroke-width="1" fill="none" fill-rule="evenodd">
        <g id="Group" transform="translate(-41.000000, -35.000000)" fill-rule="nonzero">
            <g id="Group-4" transform="translate(41.000000, 35.000000)">
                <rect id="Rectangle" fill="#E25950" x="0" y="0" width="21" height="15" rx="2"></rect>
                <path d="M12.5,3 C12.7761424,3 13,3.22385763 13,3.5 C13,3.77614237 12.7761424,4 12.5,4 C12.2238576,4 12,3.77614237 12,3.5 C12,3.22385763 12.2238576,3 12.5,3 Z" id="Path" fill="#FCD669"></path>
                <path d="M13.5,5 C13.7761424,5 14,5.22385763 14,5.5 C14,5.77614237 13.7761424,6 13.5,6 C13.2238576,6 13,5.77614237 13,5.5 C13,5.22385763 13.2238576,5 13.5,5 Z" id="Path" fill="#FCD669"></path>
                <path d="M13.5,7 C13.7761424,7 14,7.22385763 14,7.5 C14,7.77614237 13.7761424,8 13.5,8 C13.2238576,8 13,7.77614237 13,7.5 C13,7.22385763 13.2238576,7 13.5,7 Z" id="Path" fill="#FCD669"></path>
                <path d="M12.5,9 C12.7761424,9 13,9.22385763 13,9.5 C13,9.77614237 12.7761424,10 12.5,10 C12.2238576,10 12,9.77614237 12,9.5 C12,9.22385763 12.2238576,9 12.5,9 Z" id="Path" fill="#FCD669"></path>
                <polygon id="Path" fill="#FCD669" points="6.471 8.588 4.013 10 4.622 7.243 2.971 5.175 5.451 5.037 6.471 2.9 7.492 5.037 9.971 5.175 8.32 7.243 9.009 10"></polygon>
            </g>
        </g>
    </g>
</svg>