
<svg width="22px" height="15px" viewBox="0 0 22 15" version="1.1" xmlns="http://www.w3.org/2000/svg" xmlns:xlink="http://www.w3.org/1999/xlink">
    <g id="Page-1" stroke="none" stroke-width="1" fill="none" fill-rule="evenodd">
        <g id="Group" transform="translate(-72.000000, -35.000000)" fill-rule="nonzero">
            <g id="Group-3" transform="translate(72.000000, 34.999988)">
                <path d="M2,2.84217094e-14 C1.47055814,-0.00184751572 0.962134291,0.207032751 0.586916763,0.5805618 C0.211699235,0.954090849 0.000528038089,1.46156745 0,1.99101231 C0,1.99634565 0,2.00134565 0,2.00601231 L0,7.00001231 L21,7.00001231 L21,2.00601231 C21,0.900468028 20.1055393,0.00331902674 19,2.84217094e-14 L2,2.84217094e-14 Z" id="Path" fill="#FCD669"></path>
                <polygon id="Path" fill="#43458B" points="0 7.00001231 21 7.00001231 21 11.0000123 0 11.0000123"></polygon>
                <path d="M-7.10542736e-15,11.0000123 L-7.10542736e-15,13.0000123 C-7.10542736e-15,14.1045818 0.8954305,15.0000284 2,15.0000284 L19.01,15.0000284 C19.5391765,15.0021381 20.0474516,14.793618 20.4226694,14.4204639 C20.7978871,14.0473099 21.0092073,13.5401925 21.01,13.0110123 L21.01,11.0000123 L-7.10542736e-15,11.0000123 Z" id="Path" fill="#E25950"></path>
            </g>
        </g>
    </g>
</svg>