<svg width="21" height="15" fill="none" xmlns="http://www.w3.org/2000/svg"><path d="M20 7V2a1 1 0 0 0-1-1H2a.981.981 0 0 0-.325.066L11 7h9zM.665 14.48a1.991 1.991 0 0 0 .001 0H.665z" fill="#F6F9FC"/><path opacity=".2" d="M.665 14.48a1.991 1.991 0 0 0 .001 0H.665z" fill="#8898AA"/><path d="M19 0H2A1.982 1.982 0 0 0 .71.484a.788.788 0 0 1 .135.054l.83.528A.981.981 0 0 1 2 1h17a1 1 0 0 1 1 1v5h1V2a2 2 0 0 0-2-2z" fill="#F6F9FC"/><path opacity=".2" d="M19 0H2A1.982 1.982 0 0 0 .71.484a.788.788 0 0 1 .135.054l.83.528A.981.981 0 0 1 2 1h17a1 1 0 0 1 1 1v5h1V2a2 2 0 0 0-2-2z" fill="#8898AA"/><path d="M1.995 15H2a1.987 1.987 0 0 1-.005 0zM19 15h.005A1.991 1.991 0 0 0 21 13.002V13a2 2 0 0 1-2 2z" fill="#E25950"/><path d="M20 7h-9l-9.456 6.877-.735.535a.777.777 0 0 1-.143.067c.364.334.84.52 1.334.521h17a2 2 0 0 0 2-2V7h-1z" fill="#E25950"/><path d="M.04 13.403c-.008-.04-.006-.085-.012-.128.006.043.004.087.013.128H.04zm.035.111zM0 13v.002A1.957 1.957 0 0 0 0 13zm.075.514c-.01-.037-.026-.072-.034-.11.008.038.024.073.034.11z" fill="#43458B"/><path d="M1.675 1.066L.845.538A.788.788 0 0 0 .709.484 1.986 1.986 0 0 0 0 2v11c.003.092.012.184.028.275.006.043.004.087.013.128.008.039.024.074.034.111.1.372.305.707.591.965a.777.777 0 0 0 .143-.067l.735-.535L11 7 1.675 1.066z" fill="#43458B"/></svg>