<svg width="21" height="15" fill="none" xmlns="http://www.w3.org/2000/svg"><path d="M20.929 13.5H18.5V15h-16v-1.5H.071A1.966 1.966 0 0 1 0 13V2c.002-.169.026-.337.071-.5H2.5V0h16v1.5h2.429c.045.163.069.331.071.5v11a1.966 1.966 0 0 1-.071.5z" fill="#43458B"/><path d="M17.659 0H19a2 2 0 0 1 2 2v.454L17.629 5H21v5h-3.288L21 12.483V13a2 2 0 0 1-2 2h-1.258L13 11.419V15H8v-3.581L3.258 15H2a2 2 0 0 1-2-2v-.517L3.288 10H0V5h3.371L0 2.454V2a2 2 0 0 1 2-2h1.341L8 3.519V0h5v3.519L17.659 0z" fill="#F6F9FC"/><path d="M12 9v6H9V9H0V6h9V0h3v6h9v3h-9zm.5-3.5v-.218L19.429.049a1.99 1.99 0 0 1 1.138.722L14.306 5.5H12.5zM.209 1.126C.401.735.716.416 1.105.22l6.99 5.28H6.001L.209 1.126zM8.5 9.5v.218l-6.929 5.233a1.99 1.99 0 0 1-1.138-.722L6.694 9.5H8.5zm12.291 4.374a2 2 0 0 1-.896.906l-6.99-5.28h2.094l5.792 4.374z" fill="#E25950"/></svg>