
<svg width="21px" height="15px" viewBox="0 0 21 15" version="1.1" xmlns="http://www.w3.org/2000/svg" xmlns:xlink="http://www.w3.org/1999/xlink">
    <g id="Page-1" stroke="none" stroke-width="1" fill="none" fill-rule="evenodd">
        <g id="Group" transform="translate(-475.000000, -60.000000)" fill-rule="nonzero">
            <g id="Group-6" transform="translate(475.000000, 60.000000)">
                <path d="M1.995,0 C0.892383625,0.00275654955 0,0.897380179 0,2 L0,5 L21,5 L21,2.005 C20.9994666,0.901788482 20.1081951,0.00604938658 19.005,0 L1.995,0 Z" id="Path" fill="#F79A59"></path>
                <polygon id="Path" fill="#FFFFFF" points="0 5 21 5 21 10 0 10"></polygon>
                <path d="M0,10 L0,13 C0.00327738357,14.1012604 0.893751247,14.993966 1.995,15 L19.005,15 C20.1076164,14.9972435 21,14.1026198 21,13 L21,10 L0,10 Z" id="Path" fill="#24B47E"></path>
                <path d="M10.5,9 C9.67157288,9 9,8.32842712 9,7.5 C9,6.67157288 9.67157288,6 10.5,6 C11.3284271,6 12,6.67157288 12,7.5 C12,8.32842712 11.3284271,9 10.5,9 L10.5,9 Z M10.5,7 C10.2238576,7 10,7.22385763 10,7.5 C10,7.77614237 10.2238576,8 10.5,8 C10.7761424,8 11,7.77614237 11,7.5 C11,7.22385763 10.7761424,7 10.5,7 Z" id="Shape" fill="#6772E5"></path>
                <path d="M0,5 L1,5 L1,10 L0,10 L0,5 Z M20,5 L21,5 L21,10 L20,10 L20,5 Z" id="Shape" fill="#EAEEF3"></path>
            </g>
        </g>
    </g>
</svg>