<svg xmlns="http://www.w3.org/2000/svg" width="21" height="15"><defs/><g fill="none"><path fill="#43458B" d="M1.493 0A1.493 1.493 0 000 1.5V3h21V1.5c0-.8257-.6673-1.4961-1.493-1.5H1.493z"/><path fill="#F6F9FC" d="M1.001 3h18.998v9H1.001z"/><path fill="#43458B" d="M12.125 7.5L11 6h-1L8.875 7.5 10 9h1l1.125-1.5zm.75 0L14 9h-2l-1.5 2.5L9 9H7l1.125-1.5L7 6h2l1.5-2.5L12 6h2l-1.125 1.5zM0 12v1.5c0 .8257.6673 1.4961 1.493 1.5h18.014A1.493 1.493 0 0021 13.5V12H0z"/><path fill="#EAEEF3" d="M0 3h1.001v9H0V3zm19.999 0H21v9h-1.001V3z"/></g></svg>