<svg width="21" height="15" fill="none" xmlns="http://www.w3.org/2000/svg"><path d="M19 15H2a2 2 0 0 1-2-2V6h8V0h11a2 2 0 0 1 2 2v11a2 2 0 0 1-2 2z" fill="#E25950"/><path d="M0 11h21v1H0v-1zm0-2h21v1H0V9zm0-2h21v1H0V7zm8-2h13v1H8V5zm0-2h13v1H8V3zm0-2h12.723c.18.303.275.648.277 1H8V1zm12.723 13H.277A1.986 1.986 0 0 1 0 13h21a1.986 1.986 0 0 1-.277 1z" fill="#F6F9FC"/><path opacity=".2" d="M19 15H2a2 2 0 0 1-2-2V6h1v7a1 1 0 0 0 1 1h17a1 1 0 0 0 1-1V2a1 1 0 0 0-1-1H8V0h11a2 2 0 0 1 2 2v11a2 2 0 0 1-2 2z" fill="#E25950"/><path d="M0 7V2a2 2 0 0 1 2-2h7v7H0z" fill="#43458B"/><path d="M7.73 2.408a.703.703 0 1 1-.054-1.405.703.703 0 0 1 .054 1.405zm-.297 1.297a.704.704 0 1 1 0-.001v.001zM5.73 2.408a.704.704 0 1 1-.054-1.407.704.704 0 0 1 .054 1.407zm-.297 1.297a.704.704 0 1 1 0-.001v.001zM3.73 2.408a.704.704 0 1 1-.054-1.407.704.704 0 0 1 .054 1.407zm-.297 1.297a.704.704 0 1 1 0-.001v.001zM1.73 2.408a.703.703 0 1 1-.054-1.405.703.703 0 0 1 .054 1.405zM1.73 5a.704.704 0 1 1 .052 1.407A.704.704 0 0 1 1.73 5zm2 0a.704.704 0 1 1 .052 1.407A.704.704 0 0 1 3.73 5zm2 0a.704.704 0 1 1 .052 1.407A.704.704 0 0 1 5.73 5zm2 0a.704.704 0 1 1 .052 1.407A.704.704 0 0 1 7.73 5z" fill="#fff"/><path opacity=".5" d="M9 4.21a.703.703 0 1 1 0-1.011V4.21zm-9-.975a.697.697 0 0 1 1.219.47.703.703 0 0 1-.986.641A.694.694 0 0 1 0 4.174v-.939z" fill="#fff"/></svg>